# xmcd
#
# Track frame offsets:
# 150
# 14663
# 25630
# 40845
# 53574
# 67934
# 81605
# 91620
# 104947
# 117530
# 130677
# 145276
# 160014
#
# Disc length: 2288 seconds
#
#
# Revision: 0
# Processed by: cddbd v1.5.1PL2 Copyright (c) Steve Scherf et al.
# Submitted via: FreeRIP 2.942 
#
DISCID=ab08ee0d
DTITLE=Zé Biguá and Malaquias - Zé Biguá and Malaquias
DYEAR=2006
DGENRE=Country
TTITLE0=Melô do traia
TTITLE1=Vem cá meu bem
TTITLE2=O Ricardão
TTITLE3=A borboleta
TTITLE4=Festa de rodeio
TTITLE5=Balinha de canela
TTITLE6=Coisinha fofa
TTITLE7=Mulher é trem bom demais
TTITLE8=Homem sem sorte
TTITLE9=A carga que eu preciso
TTITLE10=Mal de amor
TTITLE11=Carinho de velho
TTITLE12=Retrato da época
EXTD=
EXTT0=
EXTT1=
EXTT2=
EXTT3=
EXTT4=
EXTT5=
EXTT6=
EXTT7=
EXTT8=
EXTT9=
EXTT10=
EXTT11=
EXTT12=
PLAYORDER=
